# Wavefront OBJ file automatically generated by Tiled2Unity

# Vertices (Count = 221)
v -448 -160 0
v -464 -160 0
v -464 -144 0
v -448 -144 0
v -432 -160 0
v -432 -144 0
v -416 -160 0
v -416 -144 0
v -400 -160 0
v -400 -144 0
v -384 -160 0
v -384 -144 0
v -368 -160 0
v -368 -144 0
v -352 -160 0
v -352 -144 0
v -336 -160 0
v -336 -144 0
v -320 -160 0
v -320 -144 0
v -304 -160 0
v -304 -144 0
v -288 -160 0
v -288 -144 0
v -272 -160 0
v -272 -144 0
v -448 -176 0
v -464 -176 0
v -432 -176 0
v -416 -176 0
v -400 -176 0
v -384 -176 0
v -368 -176 0
v -352 -176 0
v -336 -176 0
v -320 -176 0
v -304 -176 0
v -288 -176 0
v -272 -176 0
v -448 -192 0
v -464 -192 0
v -432 -192 0
v -416 -192 0
v -400 -192 0
v -384 -192 0
v -368 -192 0
v -352 -192 0
v -336 -192 0
v -320 -192 0
v -304 -192 0
v -288 -192 0
v -272 -192 0
v -448 -208 0
v -464 -208 0
v -432 -208 0
v -416 -208 0
v -400 -208 0
v -384 -208 0
v -368 -208 0
v -352 -208 0
v -336 -208 0
v -320 -208 0
v -304 -208 0
v -288 -208 0
v -272 -208 0
v -448 -224 0
v -464 -224 0
v -432 -224 0
v -416 -224 0
v -400 -224 0
v -384 -224 0
v -368 -224 0
v -352 -224 0
v -336 -224 0
v -320 -224 0
v -304 -224 0
v -288 -224 0
v -272 -224 0
v -448 -240 0
v -464 -240 0
v -432 -240 0
v -416 -240 0
v -400 -240 0
v -384 -240 0
v -368 -240 0
v -352 -240 0
v -336 -240 0
v -320 -240 0
v -304 -240 0
v -288 -240 0
v -272 -240 0
v -448 -256 0
v -464 -256 0
v -432 -256 0
v -416 -256 0
v -400 -256 0
v -384 -256 0
v -368 -256 0
v -352 -256 0
v -336 -256 0
v -320 -256 0
v -304 -256 0
v -288 -256 0
v -272 -256 0
v -448 -272 0
v -464 -272 0
v -432 -272 0
v -416 -272 0
v -400 -272 0
v -384 -272 0
v -368 -272 0
v -352 -272 0
v -336 -272 0
v -320 -272 0
v -304 -272 0
v -288 -272 0
v -272 -272 0
v -448 -288 0
v -464 -288 0
v -432 -288 0
v -416 -288 0
v -400 -288 0
v -384 -288 0
v -368 -288 0
v -352 -288 0
v -336 -288 0
v -320 -288 0
v -304 -288 0
v -288 -288 0
v -272 -288 0
v -448 -304 0
v -464 -304 0
v -432 -304 0
v -416 -304 0
v -400 -304 0
v -384 -304 0
v -368 -304 0
v -352 -304 0
v -336 -304 0
v -320 -304 0
v -304 -304 0
v -288 -304 0
v -272 -304 0
v -448 -320 0
v -464 -320 0
v -432 -320 0
v -416 -320 0
v -400 -320 0
v -384 -320 0
v -368 -320 0
v -352 -320 0
v -336 -320 0
v -320 -320 0
v -304 -320 0
v -288 -320 0
v -272 -320 0
v -448 -336 0
v -464 -336 0
v -432 -336 0
v -416 -336 0
v -400 -336 0
v -384 -336 0
v -368 -336 0
v -352 -336 0
v -336 -336 0
v -320 -336 0
v -304 -336 0
v -288 -336 0
v -272 -336 0
v -448 -352 0
v -464 -352 0
v -432 -352 0
v -416 -352 0
v -400 -352 0
v -384 -352 0
v -368 -352 0
v -352 -352 0
v -336 -352 0
v -320 -352 0
v -304 -352 0
v -288 -352 0
v -272 -352 0
v -448 -368 0
v -464 -368 0
v -432 -368 0
v -416 -368 0
v -400 -368 0
v -384 -368 0
v -368 -368 0
v -352 -368 0
v -336 -368 0
v -320 -368 0
v -304 -368 0
v -288 -368 0
v -272 -368 0
v -448 -384 0
v -464 -384 0
v -432 -384 0
v -416 -384 0
v -400 -384 0
v -384 -384 0
v -368 -384 0
v -352 -384 0
v -336 -384 0
v -320 -384 0
v -304 -384 0
v -288 -384 0
v -272 -384 0
v -448 -400 0
v -464 -400 0
v -432 -400 0
v -416 -400 0
v -400 -400 0
v -384 -400 0
v -368 -400 0
v -352 -400 0
v -336 -400 0
v -320 -400 0
v -304 -400 0
v -288 -400 0
v -272 -400 0

# Texture cooridinates (Count = 144)
vt 0.6674774 0.5818711
vt 0.6837623 0.5818711
vt 0.6837623 0.6120452
vt 0.6674774 0.6120452
vt 0.6147915 0.5818711
vt 0.6310763 0.5818711
vt 0.6310763 0.6120452
vt 0.6147915 0.6120452
vt 0.6499155 0.5818711
vt 0.6662002 0.5818711
vt 0.6662002 0.6120452
vt 0.6499155 0.6120452
vt 0.6323535 0.5495517
vt 0.6486382 0.5495517
vt 0.6486382 0.5797259
vt 0.6323535 0.5797259
vt 0.3162378 0.2586772
vt 0.3325226 0.2586772
vt 0.3325226 0.2888513
vt 0.3162378 0.2888513
vt 0.05280802 0.2586772
vt 0.0690928 0.2586772
vt 0.0690928 0.2888513
vt 0.05280802 0.2888513
vt 0.6850394 0.5495517
vt 0.7013242 0.5495517
vt 0.7013242 0.5797259
vt 0.6850394 0.5797259
vt 0.123056 0.8727456
vt 0.1393407 0.8727456
vt 0.1393407 0.9029198
vt 0.123056 0.9029198
vt 0.6499155 0.5495517
vt 0.6662002 0.5495517
vt 0.6662002 0.5797259
vt 0.6499155 0.5797259
vt 0.3162378 0.4849129
vt 0.3325226 0.4849129
vt 0.3325226 0.5150871
vt 0.3162378 0.5150871
vt 0.2986758 0.4849129
vt 0.3149606 0.4849129
vt 0.3149606 0.5150871
vt 0.2986758 0.5150871
vt 0.2459898 0.4849129
vt 0.2622746 0.4849129
vt 0.2622746 0.5150871
vt 0.2459898 0.5150871
vt 0.6850394 0.2586772
vt 0.7013242 0.2586772
vt 0.7013242 0.2888513
vt 0.6850394 0.2888513
vt 0.2811138 0.4849129
vt 0.2973986 0.4849129
vt 0.2973986 0.5150871
vt 0.2811138 0.5150871
vt 0.5972295 0.5172324
vt 0.6135143 0.5172324
vt 0.6135143 0.5474064
vt 0.5972295 0.5474064
vt 0.7026014 0.4849129
vt 0.7188862 0.4849129
vt 0.7188862 0.5150871
vt 0.7026014 0.5150871
vt 0.6674774 0.4849129
vt 0.6837623 0.4849129
vt 0.6837623 0.5150871
vt 0.6674774 0.5150871
vt 0.6499155 0.4849129
vt 0.6662002 0.4849129
vt 0.6662002 0.5150871
vt 0.6499155 0.5150871
vt 0.5972295 0.4849129
vt 0.6135143 0.4849129
vt 0.6135143 0.5150871
vt 0.5972295 0.5150871
vt 0.6147915 0.4849129
vt 0.6310763 0.4849129
vt 0.6310763 0.5150871
vt 0.6147915 0.5150871
vt 0.3337997 0.161719
vt 0.3500845 0.161719
vt 0.3500845 0.1918931
vt 0.3337997 0.1918931
vt 0.8430973 0.5172324
vt 0.859382 0.5172324
vt 0.859382 0.5474064
vt 0.8430973 0.5474064
vt 0.8255353 0.5172324
vt 0.8418201 0.5172324
vt 0.8418201 0.5474064
vt 0.8255353 0.5474064
vt 0.8079733 0.5172324
vt 0.8242581 0.5172324
vt 0.8242581 0.5474064
vt 0.8079733 0.5474064
vt 0.7904114 0.5172324
vt 0.8066961 0.5172324
vt 0.8066961 0.5474064
vt 0.7904114 0.5474064
vt 0.8782213 0.5172324
vt 0.894506 0.5172324
vt 0.894506 0.5474064
vt 0.8782213 0.5474064
vt 0.7201634 0.5495517
vt 0.7364482 0.5495517
vt 0.7364482 0.5797259
vt 0.7201634 0.5797259
vt 0.5269816 0.8727456
vt 0.5432664 0.8727456
vt 0.5432664 0.9029198
vt 0.5269816 0.9029198
vt 0.8255353 0.8081068
vt 0.8418201 0.8081068
vt 0.8418201 0.838281
vt 0.8255353 0.838281
vt 0.5445436 0.9697038
vt 0.5608283 0.9697038
vt 0.5608283 0.9998779
vt 0.5445436 0.9998779
vt 0.5269816 0.8404263
vt 0.5432664 0.8404263
vt 0.5432664 0.8706003
vt 0.5269816 0.8706003
vt 0.5269816 0.9697038
vt 0.5432664 0.9697038
vt 0.5432664 0.9998779
vt 0.5269816 0.9998779
vt 0.6323535 0.7111487
vt 0.6486382 0.7111487
vt 0.6486382 0.7413228
vt 0.6323535 0.7413228
vt 0.6323535 0.6465099
vt 0.6486382 0.6465099
vt 0.6486382 0.676684
vt 0.6323535 0.676684
vt 0.7904114 0.7757875
vt 0.8066961 0.7757875
vt 0.8066961 0.8059616
vt 0.7904114 0.8059616
vt 0.6850394 0.4849129
vt 0.7013242 0.4849129
vt 0.7013242 0.5150871
vt 0.6850394 0.5150871

# Normal
vn 0 0 -1

# Groups (Count = 2)

g mesh_0001
f 1/1/1 2/2/1 3/3/1 4/4/1
f 5/5/1 1/6/1 4/7/1 6/8/1
f 7/5/1 5/6/1 6/7/1 8/8/1
f 9/5/1 7/6/1 8/7/1 10/8/1
f 11/5/1 9/6/1 10/7/1 12/8/1
f 13/5/1 11/6/1 12/7/1 14/8/1
f 15/5/1 13/6/1 14/7/1 16/8/1
f 17/5/1 15/6/1 16/7/1 18/8/1
f 19/5/1 17/6/1 18/7/1 20/8/1
f 21/5/1 19/6/1 20/7/1 22/8/1
f 23/5/1 21/6/1 22/7/1 24/8/1
f 25/9/1 23/10/1 24/11/1 26/12/1
f 27/13/1 28/14/1 2/15/1 1/16/1
f 29/17/1 27/18/1 1/19/1 5/20/1
f 30/17/1 29/18/1 5/19/1 7/20/1
f 31/17/1 30/18/1 7/19/1 9/20/1
f 32/17/1 31/18/1 9/19/1 11/20/1
f 33/17/1 32/18/1 11/19/1 13/20/1
f 34/17/1 33/18/1 13/19/1 15/20/1
f 35/17/1 34/18/1 15/19/1 17/20/1
f 36/17/1 35/18/1 17/19/1 19/20/1
f 37/17/1 36/18/1 19/19/1 21/20/1
f 38/17/1 37/18/1 21/19/1 23/20/1
f 39/13/1 38/14/1 23/15/1 25/16/1
f 40/13/1 41/14/1 28/15/1 27/16/1
f 42/17/1 40/18/1 27/19/1 29/20/1
f 43/17/1 42/18/1 29/19/1 30/20/1
f 44/17/1 43/18/1 30/19/1 31/20/1
f 45/17/1 44/18/1 31/19/1 32/20/1
f 46/17/1 45/18/1 32/19/1 33/20/1
f 47/17/1 46/18/1 33/19/1 34/20/1
f 48/17/1 47/18/1 34/19/1 35/20/1
f 49/17/1 48/18/1 35/19/1 36/20/1
f 50/17/1 49/18/1 36/19/1 37/20/1
f 51/17/1 50/18/1 37/19/1 38/20/1
f 52/13/1 51/14/1 38/15/1 39/16/1
f 53/13/1 54/14/1 41/15/1 40/16/1
f 55/17/1 53/18/1 40/19/1 42/20/1
f 56/17/1 55/18/1 42/19/1 43/20/1
f 57/17/1 56/18/1 43/19/1 44/20/1
f 58/17/1 57/18/1 44/19/1 45/20/1
f 59/17/1 58/18/1 45/19/1 46/20/1
f 60/17/1 59/18/1 46/19/1 47/20/1
f 61/17/1 60/18/1 47/19/1 48/20/1
f 62/17/1 61/18/1 48/19/1 49/20/1
f 63/17/1 62/18/1 49/19/1 50/20/1
f 64/17/1 63/18/1 50/19/1 51/20/1
f 65/13/1 64/14/1 51/15/1 52/16/1
f 66/13/1 67/14/1 54/15/1 53/16/1
f 68/17/1 66/18/1 53/19/1 55/20/1
f 69/17/1 68/18/1 55/19/1 56/20/1
f 70/17/1 69/18/1 56/19/1 57/20/1
f 71/17/1 70/18/1 57/19/1 58/20/1
f 72/17/1 71/18/1 58/19/1 59/20/1
f 73/17/1 72/18/1 59/19/1 60/20/1
f 74/17/1 73/18/1 60/19/1 61/20/1
f 75/17/1 74/18/1 61/19/1 62/20/1
f 76/17/1 75/18/1 62/19/1 63/20/1
f 77/17/1 76/18/1 63/19/1 64/20/1
f 78/13/1 77/14/1 64/15/1 65/16/1
f 79/13/1 80/14/1 67/15/1 66/16/1
f 81/21/1 79/22/1 66/23/1 68/24/1
f 82/21/1 81/22/1 68/23/1 69/24/1
f 83/21/1 82/22/1 69/23/1 70/24/1
f 84/21/1 83/22/1 70/23/1 71/24/1
f 85/21/1 84/22/1 71/23/1 72/24/1
f 86/21/1 85/22/1 72/23/1 73/24/1
f 87/21/1 86/22/1 73/23/1 74/24/1
f 88/21/1 87/22/1 74/23/1 75/24/1
f 89/21/1 88/22/1 75/23/1 76/24/1
f 90/21/1 89/22/1 76/23/1 77/24/1
f 91/13/1 90/14/1 77/15/1 78/16/1
f 92/13/1 93/14/1 80/15/1 79/16/1
f 94/21/1 92/22/1 79/23/1 81/24/1
f 95/21/1 94/22/1 81/23/1 82/24/1
f 96/21/1 95/22/1 82/23/1 83/24/1
f 97/21/1 96/22/1 83/23/1 84/24/1
f 98/21/1 97/22/1 84/23/1 85/24/1
f 99/21/1 98/22/1 85/23/1 86/24/1
f 100/21/1 99/22/1 86/23/1 87/24/1
f 101/21/1 100/22/1 87/23/1 88/24/1
f 102/21/1 101/22/1 88/23/1 89/24/1
f 103/21/1 102/22/1 89/23/1 90/24/1
f 104/13/1 103/14/1 90/15/1 91/16/1
f 105/25/1 106/26/1 93/27/1 92/28/1
f 107/5/1 105/6/1 92/7/1 94/8/1
f 108/5/1 107/6/1 94/7/1 95/8/1
f 109/5/1 108/6/1 95/7/1 96/8/1
f 110/9/1 109/10/1 96/11/1 97/12/1
f 111/21/1 110/22/1 97/23/1 98/24/1
f 112/21/1 111/22/1 98/23/1 99/24/1
f 113/21/1 112/22/1 99/23/1 100/24/1
f 114/21/1 113/22/1 100/23/1 101/24/1
f 115/21/1 114/22/1 101/23/1 102/24/1
f 116/21/1 115/22/1 102/23/1 103/24/1
f 117/13/1 116/14/1 103/15/1 104/16/1
f 118/13/1 119/14/1 106/15/1 105/16/1
f 120/17/1 118/18/1 105/19/1 107/20/1
f 121/17/1 120/18/1 107/19/1 108/20/1
f 122/17/1 121/18/1 108/19/1 109/20/1
f 123/13/1 122/14/1 109/15/1 110/16/1
f 124/21/1 123/22/1 110/23/1 111/24/1
f 125/21/1 124/22/1 111/23/1 112/24/1
f 126/21/1 125/22/1 112/23/1 113/24/1
f 127/21/1 126/22/1 113/23/1 114/24/1
f 128/21/1 127/22/1 114/23/1 115/24/1
f 129/21/1 128/22/1 115/23/1 116/24/1
f 130/13/1 129/14/1 116/15/1 117/16/1
f 131/13/1 132/14/1 119/15/1 118/16/1
f 133/29/1 131/30/1 118/31/1 120/32/1
f 134/29/1 133/30/1 120/31/1 121/32/1
f 135/29/1 134/30/1 121/31/1 122/32/1
f 136/13/1 135/14/1 122/15/1 123/16/1
f 137/21/1 136/22/1 123/23/1 124/24/1
f 138/21/1 137/22/1 124/23/1 125/24/1
f 139/21/1 138/22/1 125/23/1 126/24/1
f 140/21/1 139/22/1 126/23/1 127/24/1
f 141/21/1 140/22/1 127/23/1 128/24/1
f 142/21/1 141/22/1 128/23/1 129/24/1
f 143/13/1 142/14/1 129/15/1 130/16/1
f 144/25/1 145/26/1 132/27/1 131/28/1
f 146/5/1 144/6/1 131/7/1 133/8/1
f 147/5/1 146/6/1 133/7/1 134/8/1
f 148/5/1 147/6/1 134/7/1 135/8/1
f 149/33/1 148/34/1 135/35/1 136/36/1
f 150/21/1 149/22/1 136/23/1 137/24/1
f 151/21/1 150/22/1 137/23/1 138/24/1
f 152/21/1 151/22/1 138/23/1 139/24/1
f 153/21/1 152/22/1 139/23/1 140/24/1
f 154/21/1 153/22/1 140/23/1 141/24/1
f 155/21/1 154/22/1 141/23/1 142/24/1
f 156/13/1 155/14/1 142/15/1 143/16/1
f 157/13/1 158/14/1 145/15/1 144/16/1
f 159/37/1 157/38/1 144/39/1 146/40/1
f 160/37/1 159/38/1 146/39/1 147/40/1
f 161/37/1 160/38/1 147/39/1 148/40/1
f 162/41/1 161/42/1 148/43/1 149/44/1
f 163/21/1 162/22/1 149/23/1 150/24/1
f 164/21/1 163/22/1 150/23/1 151/24/1
f 165/21/1 164/22/1 151/23/1 152/24/1
f 166/21/1 165/22/1 152/23/1 153/24/1
f 167/21/1 166/22/1 153/23/1 154/24/1
f 168/21/1 167/22/1 154/23/1 155/24/1
f 169/13/1 168/14/1 155/15/1 156/16/1
f 170/13/1 171/14/1 158/15/1 157/16/1
f 172/45/1 170/46/1 157/47/1 159/48/1
f 173/49/1 172/50/1 159/51/1 160/52/1
f 174/53/1 173/54/1 160/55/1 161/56/1
f 175/45/1 174/46/1 161/47/1 162/48/1
f 176/21/1 175/22/1 162/23/1 163/24/1
f 177/21/1 176/22/1 163/23/1 164/24/1
f 178/21/1 177/22/1 164/23/1 165/24/1
f 179/21/1 178/22/1 165/23/1 166/24/1
f 180/21/1 179/22/1 166/23/1 167/24/1
f 181/21/1 180/22/1 167/23/1 168/24/1
f 182/13/1 181/14/1 168/15/1 169/16/1
f 183/57/1 184/58/1 171/59/1 170/60/1
f 185/21/1 183/22/1 170/23/1 172/24/1
f 186/21/1 185/22/1 172/23/1 173/24/1
f 187/21/1 186/22/1 173/23/1 174/24/1
f 188/21/1 187/22/1 174/23/1 175/24/1
f 189/21/1 188/22/1 175/23/1 176/24/1
f 190/21/1 189/22/1 176/23/1 177/24/1
f 191/21/1 190/22/1 177/23/1 178/24/1
f 192/21/1 191/22/1 178/23/1 179/24/1
f 193/21/1 192/22/1 179/23/1 180/24/1
f 194/21/1 193/22/1 180/23/1 181/24/1
f 195/57/1 194/58/1 181/59/1 182/60/1
f 196/61/1 197/62/1 184/63/1 183/64/1
f 198/21/1 196/22/1 183/23/1 185/24/1
f 199/21/1 198/22/1 185/23/1 186/24/1
f 200/21/1 199/22/1 186/23/1 187/24/1
f 201/21/1 200/22/1 187/23/1 188/24/1
f 202/21/1 201/22/1 188/23/1 189/24/1
f 203/21/1 202/22/1 189/23/1 190/24/1
f 204/21/1 203/22/1 190/23/1 191/24/1
f 205/21/1 204/22/1 191/23/1 192/24/1
f 206/21/1 205/22/1 192/23/1 193/24/1
f 207/21/1 206/22/1 193/23/1 194/24/1
f 208/65/1 207/66/1 194/67/1 195/68/1
f 209/69/1 210/70/1 197/71/1 196/72/1
f 211/73/1 209/74/1 196/75/1 198/76/1
f 212/73/1 211/74/1 198/75/1 199/76/1
f 213/73/1 212/74/1 199/75/1 200/76/1
f 214/73/1 213/74/1 200/75/1 201/76/1
f 215/21/1 214/22/1 201/23/1 202/24/1
f 216/21/1 215/22/1 202/23/1 203/24/1
f 217/73/1 216/74/1 203/75/1 204/76/1
f 218/73/1 217/74/1 204/75/1 205/76/1
f 219/73/1 218/74/1 205/75/1 206/76/1
f 220/73/1 219/74/1 206/75/1 207/76/1
f 221/77/1 220/78/1 207/79/1 208/80/1

g mesh_0002
f 29/17/1 27/18/1 1/19/1 5/20/1
f 30/17/1 29/18/1 5/19/1 7/20/1
f 31/17/1 30/18/1 7/19/1 9/20/1
f 32/17/1 31/18/1 9/19/1 11/20/1
f 33/17/1 32/18/1 11/19/1 13/20/1
f 34/17/1 33/18/1 13/19/1 15/20/1
f 35/17/1 34/18/1 15/19/1 17/20/1
f 36/17/1 35/18/1 17/19/1 19/20/1
f 37/17/1 36/18/1 19/19/1 21/20/1
f 38/17/1 37/18/1 21/19/1 23/20/1
f 42/17/1 40/18/1 27/19/1 29/20/1
f 43/17/1 42/18/1 29/19/1 30/20/1
f 44/17/1 43/18/1 30/19/1 31/20/1
f 45/17/1 44/18/1 31/19/1 32/20/1
f 46/17/1 45/18/1 32/19/1 33/20/1
f 47/81/1 46/82/1 33/83/1 34/84/1
f 48/81/1 47/82/1 34/83/1 35/84/1
f 49/81/1 48/82/1 35/83/1 36/84/1
f 50/81/1 49/82/1 36/83/1 37/84/1
f 51/17/1 50/18/1 37/19/1 38/20/1
f 55/85/1 53/86/1 40/87/1 42/88/1
f 56/89/1 55/90/1 42/91/1 43/92/1
f 57/93/1 56/94/1 43/95/1 44/96/1
f 58/97/1 57/98/1 44/99/1 45/100/1
f 59/17/1 58/18/1 45/19/1 46/20/1
f 60/81/1 59/82/1 46/83/1 47/84/1
f 61/81/1 60/82/1 47/83/1 48/84/1
f 62/81/1 61/82/1 48/83/1 49/84/1
f 63/81/1 62/82/1 49/83/1 50/84/1
f 64/17/1 63/18/1 50/19/1 51/20/1
f 68/85/1 66/86/1 53/87/1 55/88/1
f 69/89/1 68/90/1 55/91/1 56/92/1
f 70/93/1 69/94/1 56/95/1 57/96/1
f 71/97/1 70/98/1 57/99/1 58/100/1
f 72/17/1 71/18/1 58/19/1 59/20/1
f 73/17/1 72/18/1 59/19/1 60/20/1
f 74/17/1 73/18/1 60/19/1 61/20/1
f 75/17/1 74/18/1 61/19/1 62/20/1
f 76/17/1 75/18/1 62/19/1 63/20/1
f 77/17/1 76/18/1 63/19/1 64/20/1
f 81/101/1 79/102/1 66/103/1 68/104/1
f 82/85/1 81/86/1 68/87/1 69/88/1
f 83/85/1 82/86/1 69/87/1 70/88/1
f 84/97/1 83/98/1 70/99/1 71/100/1
f 113/105/1 112/106/1 99/107/1 100/108/1
f 115/105/1 114/106/1 101/107/1 102/108/1
f 121/109/1 120/110/1 107/111/1 108/112/1
f 130/113/1 129/114/1 116/115/1 117/116/1
f 133/117/1 131/118/1 118/119/1 120/120/1
f 134/121/1 133/122/1 120/123/1 121/124/1
f 135/125/1 134/126/1 121/127/1 122/128/1
f 139/105/1 138/106/1 125/107/1 126/108/1
f 141/105/1 140/106/1 127/107/1 128/108/1
f 161/129/1 160/130/1 147/131/1 148/132/1
f 165/105/1 164/106/1 151/107/1 152/108/1
f 167/105/1 166/106/1 153/107/1 154/108/1
f 173/133/1 172/134/1 159/135/1 160/136/1
f 182/113/1 181/114/1 168/115/1 169/116/1
f 191/105/1 190/106/1 177/107/1 178/108/1
f 193/105/1 192/106/1 179/107/1 180/108/1
f 211/137/1 209/138/1 196/139/1 198/140/1
f 212/141/1 211/142/1 198/143/1 199/144/1
f 213/137/1 212/138/1 199/139/1 200/140/1
f 218/137/1 217/138/1 204/139/1 205/140/1
f 219/141/1 218/142/1 205/143/1 206/144/1
f 220/137/1 219/138/1 206/139/1 207/140/1

